<?xml version="1.0" encoding="utf-8"?>
<!-- Generator: Adobe Illustrator 24.0.0, SVG Export Plug-In . SVG Version: 6.00 Build 0)  -->
<svg version="1.1" id="Layer_1" xmlns="http://www.w3.org/2000/svg" xmlns:xlink="http://www.w3.org/1999/xlink" x="0px" y="0px"
	 viewBox="0 0 1040.3 220.6" style="enable-background:new 0 0 1040.3 220.6;" xml:space="preserve">
<style type="text/css">
	.st0{fill:#21B6B7;}
	.st1{fill:#C4F5F5;}
</style>
<path class="st0" d="M499.4,157.5c-1.1,0-2-0.4-2.7-1.3c-0.7-1-1-2.1-1.2-3.5l-10.5-93c-0.1-0.2-0.1-0.5-0.1-0.9
	c0-0.8,0.2-1.5,0.6-2c0.5-0.7,0.9-1,1.5-1h12.8c1.9,0,2.9,1.1,3.1,3.3l6,54.9l6.8-31.8c0.5-2.6,1.6-3.9,3.2-3.9h7.4
	c1.6,0,2.7,1.3,3.2,3.9l6.8,31.7l6.1-54.8c0.1-1.2,0.4-2,0.9-2.5c0.5-0.6,1.2-0.9,2.2-0.9h12.8c0.6,0,1.1,0.3,1.5,1
	c0.4,0.6,0.6,1.3,0.6,2v0.9l-10.5,93c-0.1,1.4-0.6,2.5-1.3,3.5c-0.7,0.9-1.6,1.3-2.6,1.3H536c-1,0-1.9-0.4-2.5-1.2
	c-0.6-0.8-1-1.6-1.2-2.6l-9.7-40.2l-9.7,40.2c-0.3,1-0.7,1.8-1.3,2.6c-0.6,0.8-1.4,1.2-2.5,1.2H499.4z M591.8,159
	c-8.2,0-14.6-2.8-19-8.4c-4.4-5.7-6.8-13.8-7.2-24.3c-0.1-1.3-0.1-3.4-0.1-6.5c0-3.1,0-5.3,0.1-6.5c0.4-10.3,2.8-18.3,7.4-24
	c4.6-5.8,10.9-8.7,18.8-8.7s14.2,2.9,18.7,8.7c4.6,5.7,7.1,13.7,7.5,24c0.1,2.5,0.2,4.7,0.2,6.5s-0.1,4-0.2,6.5
	c-0.4,10.5-2.8,18.6-7.3,24.3C606.4,156.1,600.1,159,591.8,159z M591.8,140.7c2.7,0,4.7-1.2,6-3.6c1.3-2.5,2.1-6.3,2.3-11.5
	c0.1-1,0.1-2.9,0.1-5.8s0-4.8-0.1-5.8c-0.2-5-0.9-8.8-2.3-11.3c-1.3-2.5-3.3-3.8-6-3.8c-2.7,0-4.7,1.3-6,3.8
	c-1.3,2.5-2.1,6.3-2.3,11.3l-0.1,5.8l0.1,5.8c0.2,5.1,0.9,9,2.3,11.5C587.2,139.4,589.2,140.7,591.8,140.7z M630,157.5
	c-0.7,0-1.2-0.3-1.8-1c-0.5-0.8-0.7-1.6-0.7-2.6V85.7c0-1.1,0.2-1.9,0.7-2.6c0.5-0.8,1-1.2,1.8-1.2h12c0.7,0,1.3,0.4,1.8,1.2
	c0.5,0.7,0.8,1.5,0.8,2.6v5.5c1.8-3,4-5.3,6.4-6.8c2.5-1.6,5.2-2.5,8.2-2.5h4.4c0.7,0,1.3,0.3,1.8,1c0.5,0.7,0.7,1.5,0.7,2.6v15.8
	c0,1-0.2,1.8-0.7,2.6c-0.5,0.7-1,1-1.8,1h-9.9c-2.6,0-4.6,1.1-6.1,3.2c-1.4,2.1-2.1,5.1-2.1,9v36.6c0,1.1-0.3,1.9-0.8,2.6
	c-0.5,0.7-1,1-1.8,1H630z M675.3,157.5c-0.7,0-1.3-0.3-1.9-1c-0.5-0.7-0.7-1.5-0.7-2.6V58c0-1.1,0.2-1.9,0.7-2.6
	c0.5-0.7,1.1-1,1.9-1h12.3c0.7,0,1.3,0.3,1.8,1c0.5,0.7,0.7,1.5,0.7,2.6v95.9c0,1-0.2,1.8-0.7,2.6c-0.5,0.7-1,1-1.8,1H675.3z
	 M720.3,159c-6.3,0-11.3-3-15-8.9c-3.6-5.9-5.5-14.3-5.8-25.3l-0.1-5.1l0.1-5.2c0.3-10.6,2.2-18.8,5.9-24.8
	c3.7-6.1,8.6-9.2,14.9-9.2c5.9,0,10.6,2.8,14.2,8.4V58c0-1.1,0.2-1.9,0.7-2.6c0.5-0.7,1.1-1,1.8-1h12.6c0.7,0,1.3,0.3,1.8,1
	c0.5,0.7,0.8,1.5,0.8,2.6v95.9c0,1.1-0.3,1.9-0.8,2.6c-0.5,0.7-1,1-1.8,1h-11.7c-0.7,0-1.2-0.3-1.8-1c-0.5-0.8-0.7-1.6-0.7-2.6v-4.5
	C732,155.8,726.9,159,720.3,159z M726,138.8c2.8,0,4.9-1.3,6.3-3.9c1.4-2.7,2.1-6.1,2.3-10.2c0.1-2.7,0.2-4.6,0.2-5.5
	c0-1.1-0.1-2.9-0.2-5.4c-0.1-3.8-0.9-6.9-2.4-9.3c-1.4-2.5-3.4-3.8-6.2-3.8c-2.9,0-5.1,1.3-6.4,3.9c-1.2,2.5-2,6.1-2.2,10.6
	l-0.1,4.5l0.1,4.5c0.2,4.6,0.9,8.1,2.2,10.8C720.9,137.5,723,138.8,726,138.8z"/>
<path class="st1" d="M827,117.4c3.7-2.6,6.6-6.3,8.7-11c2.2-4.7,3.2-10.5,3.2-17.3c0-10.6-2.5-18.7-7.4-24.6
	c-4.8-5.8-11.6-8.7-20.2-8.7h-27c-0.7,0-1.3,0.4-1.8,1.2c-0.5,0.7-0.7,1.5-0.7,2.6v94.3c0,1,0.2,1.8,0.7,2.6c0.5,0.7,1.1,1,1.8,1
	h13.4c0.7,0,1.3-0.3,1.8-1c0.5-0.7,0.8-1.5,0.8-2.6v-31.8h9.4l10.8,31.5c0.8,2.6,2.1,3.9,4,3.9h13.8c0.6,0,1.1-0.3,1.5-0.9
	c0.4-0.7,0.6-1.4,0.6-2.2c0-0.5-0.1-1-0.3-1.6L827,117.4z M817.7,97.6c-1.4,2-3.6,3.1-6.4,3.1h-10.9v-24h10.9c2.8,0,4.9,1.1,6.4,3.3
	c1.5,2.2,2.3,5.2,2.3,8.9C819.9,92.6,819.2,95.5,817.7,97.6z"/>
<path class="st1" d="M1002,115.8l17.3-28.2c0.5-0.7,0.7-1.5,0.7-2.3c0-1-0.2-1.7-0.7-2.3c-0.4-0.7-0.9-1-1.5-1h-13.8
	c-0.6,0-1.1,0.1-1.5,0.4c-0.4,0.2-0.8,0.5-1.2,1c-0.3,0.5-0.6,0.8-0.7,1l-13,22.1V58c0-1.1-0.2-1.9-0.7-2.6c-0.5-0.7-1-1-1.8-1h-12
	c-0.7,0-1.3,0.3-1.9,1c-0.5,0.7-0.7,1.5-0.7,2.6v95.9c0,1.1,0.2,1.9,0.7,2.6c0.5,0.7,1.1,1,1.9,1h12c0.7,0,1.3-0.3,1.8-1
	c0.5-0.8,0.7-1.6,0.7-2.6v-26.2l14.9,27.3c0.6,0.9,1.1,1.5,1.5,1.9c0.5,0.4,1.1,0.6,2,0.6h14.2c0.7,0,1.2-0.3,1.6-0.9
	c0.5-0.7,0.7-1.5,0.7-2.5c0-0.6-0.2-1.3-0.7-2.2L1002,115.8z"/>
<path class="st1" d="M872.6,80.5c-5.1,0-9.4,1.2-12.8,3.5c-3.5,2.3-6,5.1-7.7,8.4c-1.7,3.2-2.6,6.1-2.6,8.7
	c-0.1,0.9,0.1,1.6,0.5,2.3c0.5,0.6,1,0.9,1.7,0.9h11.4c0.4,0,0.7-0.3,1-1c0.7-0.5,1.4-1.3,2.3-2.3c1.1-1.4,2.1-2.4,2.9-3.1
	c0.9-0.7,2-1,3.3-1c2.4,0,4,0.8,5,2.5c1,1.6,1.5,4.3,1.5,7.8v1.7l-12.2,2.8c-6.5,1.5-11.6,4.4-15.3,8.6c-3.7,4.1-5.5,9.4-5.5,16
	c0,4.2,0.8,8,2.4,11.5c1.6,3.5,3.9,6.2,6.7,8.3c2.9,1.9,6,2.9,9.5,2.9c3.5,0,6.6-0.9,9.1-2.8c2.5-1.9,4.5-4.4,6-7.4v5.1
	c0,1,0.2,1.8,0.7,2.6c0.5,0.7,1.1,1,1.8,1h12.1c0.7,0,1.3-0.3,1.8-1c0.5-0.8,0.7-1.6,0.7-2.6v-44c0-9-2-16.1-5.9-21.4
	C886.7,83.2,880.7,80.5,872.6,80.5z M879.1,125.4c0,5.3-0.9,9.4-2.7,12.2c-1.8,2.8-4.1,4.2-7,4.2c-1.9,0-3.5-0.7-4.8-2
	c-1.2-1.4-1.9-3.1-1.9-5.4c0-4.3,2.7-7.2,8.2-8.7l8.1-2V125.4z"/>
<path class="st1" d="M1006.9,160c-0.1,0-0.1,0-0.2-0.1c0,0-0.1,0-0.1-0.1c-0.8-0.5-1.7-1.1-2.5-1.6c0,0,0,0-0.1,0
	c1.6,2.4,3.7,4.5,6.3,6.4c0,0,0.1,0,0.1,0.1c0,0,0,0,0,0C1008.8,163.4,1007.6,161.8,1006.9,160z"/>
<path class="st1" d="M950.4,84.3c-2.9-2.5-6.2-3.8-9.9-3.8c-3.6,0-6.8,1-9.6,2.9c-2.7,1.9-5,4.5-6.8,7.7v-5.5c0-1.1-0.2-1.9-0.7-2.6
	c-0.5-0.7-1-1-1.8-1h-12.1c-0.7,0-1.2,0.3-1.8,1c-0.5,0.7-0.7,1.5-0.7,2.6v68.3c0,1,0.2,1.8,0.7,2.6c0.5,0.7,1.1,1,1.8,1h13
	c0.7,0,1.3-0.3,1.8-1c0.5-0.8,0.7-1.6,0.7-2.6v-39.7c0-4.3,0.8-7.6,2.3-9.9c1.5-2.4,3.6-3.6,6.2-3.6c2.7,0,4.7,1.2,6.1,3.5
	c1.4,2.3,2.2,5.7,2.2,10v39.7c0,1.1,0.2,1.9,0.7,2.6c0.5,0.7,1.1,1,1.9,1h13c0.7,0,1.3-0.3,1.8-1c0.5-0.8,0.7-1.6,0.7-2.6v-40.5
	c0-7-0.8-12.9-2.5-17.9C955.7,90.5,953.4,86.8,950.4,84.3z"/>
<path class="st0" d="M29.3,139.1h98.4c6,0,10.9,5.2,10.9,11.6v2.3c0,6.4-4.9,11.6-10.9,11.6H29.3c-6,0-10.9-5.2-10.9-11.6v-2.3
	C18.4,144.3,23.3,139.1,29.3,139.1z"/>
<path class="st0" d="M30.9,97.1h66.8c6.9,0,12.5,5.7,12.5,12.8v2.6c0,7.1-5.6,12.8-12.5,12.8H30.9c-6.9,0-12.5-5.7-12.5-12.8v-2.6
	C18.4,102.9,24,97.1,30.9,97.1z"/>
<path class="st0" d="M32.5,56.6h23.6c7.8,0,14.1,5.6,14.1,12.5v2.5c0,6.9-6.3,12.5-14.1,12.5H32.5c-7.8,0-14.1-5.6-14.1-12.5V69
	C18.4,62.1,24.7,56.6,32.5,56.6z"/>
<g>
	<g>
		<path class="st1" d="M227.7,130c-2.6,17.2-11.9,29.7-28.4,29.7c-20.9,0-30.8-20.7-30.8-46.9c0-25.3,10.2-47.9,31.5-47.9
			c17.6,0,26.1,14.4,27.7,29.8h-14.3c-1.4-7.1-4.9-14.2-13.9-14.2c-11.8,0-16.3,14.8-16.3,31.5c0,15.6,3.9,32,16.7,32
			c9.3,0,12.2-8.7,13.5-14.1H227.7z"/>
		<path class="st1" d="M238.1,108c0-6.9,0-13-0.1-18.8h13.4c0.2,1.5,0.4,8.4,0.4,12.1c2.2-7.9,7.5-13.7,15.9-13.7v18.3
			c-9.9-0.4-15.9,3.4-15.9,22.3v30.2h-13.7V108z"/>
		<path class="st1" d="M284.8,89.2c5.1,23.9,9.6,45.2,10.4,51.6h0.1c1.1-7,4-22.5,9.9-51.6h13.6l-16.6,71.2
			c-4.7,19.9-8.7,25.8-20.6,25.8c-1.2,0-4-0.1-6.4-0.5v-15.4c0.9,0.1,2.4,0.3,3.5,0.3c5,0,7.6-2.4,9.4-10.1l-18-71.3H284.8z"/>
		<path class="st1" d="M339.1,152.3v32.6h-13.6v-79c0-5.6,0-11.1-0.1-16.7h13.3c0.2,1.8,0.4,6.1,0.4,8.6c2.1-5.1,6.5-10.2,14.4-10.2
			c11.1,0,19.7,13,19.7,34.5c0,24.4-9.6,37.9-21.6,37.9C344.6,160,341,156.3,339.1,152.3z M359.3,122.8c0-12.7-3.7-19.8-10.2-19.8
			c-7.8,0-10.5,7-10.5,20.9c0,13.2,2.6,20.9,10,20.9C355.7,144.8,359.3,136.9,359.3,122.8z"/>
		<path class="st1" d="M377.8,89.2h7.6V70.5h13.7v18.7h9.7v14.4h-9.7v34.1c0,5.2,1.1,7.3,5.2,7.3c0.8,0,2.1,0,3.1-0.2V158
			c-2.7,1.3-6.4,1.3-9.2,1.3c-9.7,0-12.8-7.2-12.8-19.3v-36.4h-7.6V89.2z"/>
		<path class="st1" d="M463.4,123.7c0,20.9-9,36.3-24.6,36.3c-15.3,0-24.3-15.3-24.3-36c0-21.3,9.2-36.4,25-36.4
			C454,87.6,463.4,102,463.4,123.7z M428.3,123.8c0,13.3,4.1,21.2,10.7,21.2c6.7,0,10.4-7.9,10.4-21.1c0-14.5-3.8-21.3-10.6-21.3
			C432.5,102.6,428.3,109.2,428.3,123.8z"/>
	</g>
</g>
</svg>
